<svg xmlns="http://www.w3.org/2000/svg" xmlns:xlink="http://www.w3.org/1999/xlink" width="1080" zoomAndPan="magnify" viewBox="0 0 810 809.999993" height="1080" preserveAspectRatio="xMidYMid meet" version="1.0"><defs><g/></defs><g fill="#000000" fill-opacity="1"><g transform="translate(167.272503, 415.796687)"><g><path d="M -77.703125 -24.25 L -72.515625 -57.765625 C -71.210938 -66.179688 -68.390625 -73.390625 -64.046875 -79.390625 C -59.703125 -85.390625 -54.238281 -89.722656 -47.65625 -92.390625 C -41.082031 -95.054688 -33.894531 -95.785156 -26.09375 -94.578125 C -18.289062 -93.367188 -11.65625 -90.5 -6.1875 -85.96875 C -0.71875 -81.4375 3.175781 -75.65625 5.5 -68.625 C 7.820312 -61.59375 8.332031 -53.867188 7.03125 -45.453125 L 1.84375 -11.9375 Z M -2.9375 -46.3125 C -1.945312 -52.738281 -2.320312 -58.585938 -4.0625 -63.859375 C -5.8125 -69.140625 -8.734375 -73.453125 -12.828125 -76.796875 C -16.929688 -80.148438 -21.941406 -82.285156 -27.859375 -83.203125 C -33.765625 -84.117188 -39.175781 -83.597656 -44.09375 -81.640625 C -49.007812 -79.691406 -53.097656 -76.460938 -56.359375 -71.953125 C -59.617188 -67.453125 -61.742188 -61.988281 -62.734375 -55.5625 L -66.0625 -34.078125 L -6.265625 -24.828125 Z M -2.9375 -46.3125 "/></g></g></g><g fill="#000000" fill-opacity="1"><g transform="translate(180.130209, 333.421483)"><g><path d="M 1.609375 -72.125 C 2.359375 -71.75 3.320312 -71.191406 4.5 -70.453125 L -17.140625 -26 C -12.015625 -24.269531 -7.101562 -24.5 -2.40625 -26.6875 C 2.28125 -28.882812 5.929688 -32.671875 8.546875 -38.046875 C 11.734375 -44.585938 12.09375 -50.929688 9.625 -57.078125 L 18.703125 -59.453125 C 20.390625 -55.566406 21.09375 -51.40625 20.8125 -46.96875 C 20.539062 -42.539062 19.300781 -38.054688 17.09375 -33.515625 C 14.269531 -27.722656 10.578125 -23.164062 6.015625 -19.84375 C 1.453125 -16.519531 -3.554688 -14.671875 -9.015625 -14.296875 C -14.484375 -13.929688 -19.90625 -15.0625 -25.28125 -17.6875 C -30.59375 -20.269531 -34.804688 -23.789062 -37.921875 -28.25 C -41.035156 -32.707031 -42.765625 -37.601562 -43.109375 -42.9375 C -43.460938 -48.269531 -42.367188 -53.550781 -39.828125 -58.78125 C -37.273438 -64.019531 -33.8125 -68.109375 -29.4375 -71.046875 C -25.0625 -73.984375 -20.171875 -75.566406 -14.765625 -75.796875 C -9.367188 -76.035156 -3.910156 -74.8125 1.609375 -72.125 Z M -31.4375 -54.6875 C -33.75 -49.9375 -34.234375 -45.253906 -32.890625 -40.640625 C -31.554688 -36.035156 -28.6875 -32.3125 -24.28125 -29.46875 L -7.171875 -64.625 C -12.054688 -66.320312 -16.738281 -66.28125 -21.21875 -64.5 C -25.707031 -62.71875 -29.113281 -59.445312 -31.4375 -54.6875 Z M -31.4375 -54.6875 "/></g></g></g><g fill="#000000" fill-opacity="1"><g transform="translate(206.069632, 278.336803)"><g><path d="M -5.390625 -88.515625 L 24.21875 -28.921875 L 16.984375 -20.28125 L -46.890625 -38.9375 L -39.5 -47.765625 L 11.40625 -32.4375 L -12.328125 -80.21875 Z M -5.390625 -88.515625 "/></g></g></g><g fill="#000000" fill-opacity="1"><g transform="translate(243.511694, 234.916017)"><g/></g></g><g fill="#000000" fill-opacity="1"><g transform="translate(253.89494, 214.791964)"><g><path d="M 83.1875 -124.046875 L 90.671875 -39.5 L 79.609375 -34.671875 L 33.796875 -84.84375 L 39.328125 -17.125 L 28.046875 -12.21875 L -28.78125 -75.265625 L -17.921875 -80 L 28.15625 -28.703125 L 22.78125 -97.734375 L 32.484375 -101.953125 L 79.09375 -50.515625 L 73.171875 -119.6875 Z M 83.1875 -124.046875 "/></g></g></g><g fill="#000000" fill-opacity="1"><g transform="translate(360.677829, 171.328735)"><g><path d="M 64 -33.296875 C 64.039062 -32.453125 64.015625 -31.335938 63.921875 -29.953125 L 14.546875 -27.546875 C 15.492188 -22.222656 18.054688 -18.03125 22.234375 -14.96875 C 26.421875 -11.90625 31.5 -10.519531 37.46875 -10.8125 C 44.738281 -11.164062 50.476562 -13.90625 54.6875 -19.03125 L 61.109375 -12.203125 C 58.515625 -8.859375 55.207031 -6.238281 51.1875 -4.34375 C 47.175781 -2.457031 42.644531 -1.394531 37.59375 -1.15625 C 31.15625 -0.832031 25.382812 -1.867188 20.28125 -4.265625 C 15.175781 -6.671875 11.148438 -10.175781 8.203125 -14.78125 C 5.253906 -19.394531 3.632812 -24.691406 3.34375 -30.671875 C 3.050781 -36.566406 4.109375 -41.953125 6.515625 -46.828125 C 8.921875 -51.710938 12.378906 -55.585938 16.890625 -58.453125 C 21.398438 -61.316406 26.5625 -62.894531 32.375 -63.1875 C 38.195312 -63.46875 43.445312 -62.398438 48.125 -59.984375 C 52.8125 -57.566406 56.550781 -54.046875 59.34375 -49.421875 C 62.144531 -44.796875 63.695312 -39.421875 64 -33.296875 Z M 32.828125 -53.875 C 27.546875 -53.613281 23.203125 -51.789062 19.796875 -48.40625 C 16.398438 -45.019531 14.519531 -40.707031 14.15625 -35.46875 L 53.203125 -37.375 C 52.335938 -42.476562 50.046875 -46.566406 46.328125 -49.640625 C 42.617188 -52.722656 38.117188 -54.132812 32.828125 -53.875 Z M 32.828125 -53.875 "/></g></g></g><g fill="#000000" fill-opacity="1"><g transform="translate(420.622079, 166.455663)"><g><path d="M 55.21875 -50.6875 C 60.976562 -49.394531 65.851562 -46.960938 69.84375 -43.390625 C 73.832031 -39.816406 76.601562 -35.457031 78.15625 -30.3125 C 79.71875 -25.164062 79.828125 -19.601562 78.484375 -13.625 C 77.140625 -7.644531 74.660156 -2.644531 71.046875 1.375 C 67.441406 5.40625 63.070312 8.175781 57.9375 9.6875 C 52.800781 11.207031 47.351562 11.320312 41.59375 10.03125 C 37.175781 9.039062 33.328125 7.273438 30.046875 4.734375 C 26.765625 2.191406 24.296875 -0.988281 22.640625 -4.8125 L 20.53125 4.609375 L 10.21875 2.296875 L 28.890625 -80.96875 L 39.65625 -78.5625 L 32.3125 -45.796875 C 35.40625 -48.390625 38.925781 -50.09375 42.875 -50.90625 C 46.832031 -51.71875 50.945312 -51.644531 55.21875 -50.6875 Z M 42.8125 0.40625 C 46.625 1.257812 50.238281 1.144531 53.65625 0.0625 C 57.082031 -1.007812 60.03125 -2.941406 62.5 -5.734375 C 64.96875 -8.523438 66.664062 -11.972656 67.59375 -16.078125 C 68.507812 -20.191406 68.445312 -24.035156 67.40625 -27.609375 C 66.363281 -31.179688 64.519531 -34.164062 61.875 -36.5625 C 59.226562 -38.96875 56 -40.597656 52.1875 -41.453125 C 48.445312 -42.285156 44.851562 -42.1875 41.40625 -41.15625 C 37.957031 -40.125 35.015625 -38.207031 32.578125 -35.40625 C 30.140625 -32.613281 28.460938 -29.160156 27.546875 -25.046875 C 26.617188 -20.941406 26.660156 -17.101562 27.671875 -13.53125 C 28.679688 -9.96875 30.519531 -6.960938 33.1875 -4.515625 C 35.863281 -2.066406 39.070312 -0.425781 42.8125 0.40625 Z M 42.8125 0.40625 "/></g></g></g><g fill="#000000" fill-opacity="1"><g transform="translate(488.978091, 183.38413)"><g/></g></g><g fill="#000000" fill-opacity="1"><g transform="translate(513.477485, 194.187721)"><g><path d="M 11.015625 7.125 C 9.160156 6.0625 7.941406 4.5 7.359375 2.4375 C 6.773438 0.375 7.054688 -1.648438 8.203125 -3.640625 C 9.316406 -5.566406 10.910156 -6.796875 12.984375 -7.328125 C 15.054688 -7.859375 17.019531 -7.59375 18.875 -6.53125 C 20.738281 -5.457031 21.9375 -3.921875 22.46875 -1.921875 C 23.007812 0.0664062 22.707031 2.054688 21.5625 4.046875 C 20.414062 6.035156 18.820312 7.304688 16.78125 7.859375 C 14.738281 8.410156 12.816406 8.164062 11.015625 7.125 Z M 11.015625 7.125 "/></g></g></g><g fill="#000000" fill-opacity="1"><g transform="translate(532.68237, 204.841673)"><g/></g></g><g fill="#000000" fill-opacity="1"><g transform="translate(553.453225, 216.543663)"><g><path d="M 67.4375 -31.28125 L 47.046875 -12.015625 L 74.765625 17.3125 L 67.578125 24.109375 L 39.859375 -5.21875 L 16.203125 17.140625 L 8.296875 8.78125 L 66.796875 -46.515625 L 105.828125 -5.234375 L 98.5625 1.640625 Z M 67.4375 -31.28125 "/></g></g></g><g fill="#000000" fill-opacity="1"><g transform="translate(597.325153, 263.63517)"><g><path d="M 54.328125 -8 C 58.335938 -8.164062 62.09375 -7.109375 65.59375 -4.828125 C 69.101562 -2.554688 72.238281 0.878906 75 5.484375 L 65.828125 10.984375 C 65.566406 10.410156 65.160156 9.664062 64.609375 8.75 C 61.546875 3.613281 57.609375 0.5 52.796875 -0.59375 C 47.984375 -1.695312 42.75 -0.550781 37.09375 2.84375 L 11.046875 18.4375 L 5.375 8.984375 L 57.671875 -22.328125 L 63.109375 -13.25 Z M 54.328125 -8 "/></g></g></g><g fill="#000000" fill-opacity="1"><g transform="translate(619.252477, 295.717837)"><g><path d="M 10.90625 34.90625 C 9 29.164062 8.550781 23.578125 9.5625 18.140625 C 10.582031 12.710938 12.894531 7.960938 16.5 3.890625 C 20.113281 -0.179688 24.757812 -3.164062 30.4375 -5.0625 C 36.101562 -6.957031 41.601562 -7.359375 46.9375 -6.265625 C 52.28125 -5.171875 56.972656 -2.753906 61.015625 0.984375 C 65.054688 4.734375 68.03125 9.476562 69.9375 15.21875 C 71.863281 20.96875 72.328125 26.535156 71.328125 31.921875 C 70.335938 37.304688 68.03125 42.03125 64.40625 46.09375 C 60.789062 50.164062 56.148438 53.148438 50.484375 55.046875 C 44.804688 56.941406 39.300781 57.34375 33.96875 56.25 C 28.644531 55.164062 23.953125 52.773438 19.890625 49.078125 C 15.828125 45.378906 12.832031 40.65625 10.90625 34.90625 Z M 20.078125 31.84375 C 21.316406 35.550781 23.28125 38.59375 25.96875 40.96875 C 28.664062 43.351562 31.835938 44.863281 35.484375 45.5 C 39.140625 46.144531 42.960938 45.800781 46.953125 44.46875 C 50.953125 43.132812 54.21875 41.113281 56.75 38.40625 C 59.289062 35.707031 60.898438 32.601562 61.578125 29.09375 C 62.265625 25.59375 61.988281 21.988281 60.75 18.28125 C 59.519531 14.570312 57.578125 11.523438 54.921875 9.140625 C 52.273438 6.753906 49.117188 5.21875 45.453125 4.53125 C 41.796875 3.851562 37.96875 4.179688 33.96875 5.515625 C 29.976562 6.847656 26.71875 8.882812 24.1875 11.625 C 21.664062 14.375 20.039062 17.503906 19.3125 21.015625 C 18.59375 24.523438 18.847656 28.132812 20.078125 31.84375 Z M 20.078125 31.84375 "/></g></g></g><g fill="#000000" fill-opacity="1"><g transform="translate(640.768369, 354.507545)"><g><path d="M 63.515625 40.015625 C 63.878906 47.742188 61.925781 53.992188 57.65625 58.765625 C 53.394531 63.546875 46.941406 66.144531 38.296875 66.5625 L 3.265625 68.234375 L 2.734375 57.203125 L 36.5 55.578125 C 42.40625 55.296875 46.78125 53.664062 49.625 50.6875 C 52.476562 47.71875 53.78125 43.59375 53.53125 38.3125 C 53.25 32.34375 51.28125 27.710938 47.625 24.421875 C 43.976562 21.140625 38.898438 19.65625 32.390625 19.96875 L 1.03125 21.46875 L 0.5 10.453125 L 61.375 7.53125 L 61.875 18.09375 L 52.6875 18.53125 C 55.945312 20.601562 58.507812 23.492188 60.375 27.203125 C 62.238281 30.910156 63.285156 35.179688 63.515625 40.015625 Z M 63.515625 40.015625 "/></g></g></g><g fill="#000000" fill-opacity="1"><g transform="translate(643.36686, 423.689338)"><g><path d="M -4.515625 44.65625 C -5.578125 42.8125 -6.25 40.65625 -6.53125 38.1875 C -6.820312 35.726562 -6.742188 33.25 -6.296875 30.75 C -5.191406 24.71875 -2.71875 20.335938 1.125 17.609375 C 4.96875 14.890625 9.910156 14.078125 15.953125 15.171875 L 48.859375 21.171875 L 50.703125 10.984375 L 59.65625 12.609375 L 57.8125 22.796875 L 70.9375 25.1875 L 68.953125 36.046875 L 55.828125 33.65625 L 52.703125 50.859375 L 43.75 49.234375 L 46.875 32.03125 L 14.40625 26.109375 C 11.175781 25.523438 8.539062 25.882812 6.5 27.1875 C 4.46875 28.5 3.179688 30.660156 2.640625 33.671875 C 2.023438 36.992188 2.453125 39.992188 3.921875 42.671875 Z M -4.515625 44.65625 "/></g></g></g><g fill="#000000" fill-opacity="1"><g transform="translate(638.38336, 462.800628)"><g><path d="M 2.65625 72.09375 C 1.882812 71.769531 0.894531 71.269531 -0.3125 70.59375 L 18.65625 24.9375 C 13.4375 23.507812 8.546875 24.03125 3.984375 26.5 C -0.566406 28.96875 -3.988281 32.960938 -6.28125 38.484375 C -9.070312 45.203125 -9.054688 51.5625 -6.234375 57.5625 L -15.15625 60.453125 C -17.0625 56.660156 -18.007812 52.546875 -18 48.109375 C -17.988281 43.679688 -17.015625 39.132812 -15.078125 34.46875 C -12.597656 28.507812 -9.179688 23.738281 -4.828125 20.15625 C -0.472656 16.570312 4.414062 14.429688 9.84375 13.734375 C 15.28125 13.046875 20.757812 13.847656 26.28125 16.140625 C 31.726562 18.410156 36.140625 21.675781 39.515625 25.9375 C 42.890625 30.207031 44.910156 34.992188 45.578125 40.296875 C 46.242188 45.597656 45.457031 50.9375 43.21875 56.3125 C 40.988281 61.695312 37.773438 65.988281 33.578125 69.1875 C 29.378906 72.382812 24.59375 74.253906 19.21875 74.796875 C 13.84375 75.347656 8.320312 74.445312 2.65625 72.09375 Z M 34.609375 52.734375 C 36.640625 47.847656 36.851562 43.144531 35.25 38.625 C 33.644531 34.101562 30.554688 30.554688 25.984375 27.984375 L 10.984375 64.09375 C 15.960938 65.488281 20.632812 65.164062 25 63.125 C 29.375 61.09375 32.578125 57.628906 34.609375 52.734375 Z M 34.609375 52.734375 "/></g></g></g><g fill="#000000" fill-opacity="1"><g transform="translate(617.094736, 519.055287)"><g><path d="M 22 71.78125 C 17.238281 77.875 11.6875 81.332031 5.34375 82.15625 C -1 82.988281 -7.582031 80.742188 -14.40625 75.421875 L -42.046875 53.828125 L -35.25 45.125 L -8.609375 65.9375 C -3.953125 69.570312 0.425781 71.191406 4.53125 70.796875 C 8.632812 70.410156 12.316406 68.128906 15.578125 63.953125 C 19.253906 59.242188 20.78125 54.453125 20.15625 49.578125 C 19.53125 44.710938 16.644531 40.273438 11.5 36.265625 L -13.234375 16.9375 L -6.4375 8.25 L 41.59375 45.765625 L 35.078125 54.109375 L 27.828125 48.453125 C 28.941406 52.128906 28.992188 55.984375 27.984375 60.015625 C 26.972656 64.046875 24.976562 67.96875 22 71.78125 Z M 22 71.78125 "/></g></g></g><g fill="#000000" fill-opacity="1"><g transform="translate(576.776584, 573.199697)"><g><path d="M -5.328125 108.953125 L -55.171875 39.703125 L -46.578125 33.515625 L -40.9375 41.359375 C -40.914062 37.191406 -39.894531 33.289062 -37.875 29.65625 C -35.851562 26.03125 -33.007812 22.898438 -29.34375 20.265625 C -24.550781 16.816406 -19.492188 14.78125 -14.171875 14.15625 C -8.859375 13.539062 -3.75 14.375 1.15625 16.65625 C 6.0625 18.9375 10.300781 22.566406 13.875 27.546875 C 17.457031 32.523438 19.539062 37.6875 20.125 43.03125 C 20.71875 48.375 19.875 53.46875 17.59375 58.3125 C 15.320312 63.164062 11.789062 67.316406 7 70.765625 C 3.457031 73.316406 -0.285156 75 -4.234375 75.8125 C -8.191406 76.625 -12.101562 76.4375 -15.96875 75.25 L 3.640625 102.5 Z M -24.4375 28.640625 C -27.550781 30.878906 -29.859375 33.648438 -31.359375 36.953125 C -32.859375 40.253906 -33.367188 43.742188 -32.890625 47.421875 C -32.421875 51.097656 -30.957031 54.644531 -28.5 58.0625 C -26.03125 61.476562 -23.128906 63.992188 -19.796875 65.609375 C -16.460938 67.234375 -13.003906 67.835938 -9.421875 67.421875 C -5.835938 67.015625 -2.488281 65.691406 0.625 63.453125 C 3.789062 61.171875 6.117188 58.410156 7.609375 55.171875 C 9.097656 51.929688 9.625 48.457031 9.1875 44.75 C 8.75 41.050781 7.296875 37.492188 4.828125 34.078125 C 2.367188 30.660156 -0.539062 28.15625 -3.90625 26.5625 C -7.28125 24.96875 -10.753906 24.34375 -14.328125 24.6875 C -17.898438 25.039062 -21.269531 26.359375 -24.4375 28.640625 Z M -24.4375 28.640625 "/></g></g></g><g fill="#000000" fill-opacity="1"><g transform="translate(518.720284, 613.056066)"><g/></g></g><g fill="#000000" fill-opacity="1"><g transform="translate(494.372627, 624.197376)"><g><path d="M -12.65625 3.5 C -10.613281 2.820312 -8.628906 2.945312 -6.703125 3.875 C -4.785156 4.800781 -3.460938 6.359375 -2.734375 8.546875 C -2.023438 10.648438 -2.160156 12.65625 -3.140625 14.5625 C -4.117188 16.46875 -5.628906 17.757812 -7.671875 18.4375 C -9.703125 19.113281 -11.640625 18.992188 -13.484375 18.078125 C -15.328125 17.160156 -16.613281 15.613281 -17.34375 13.4375 C -18.070312 11.25 -17.960938 9.207031 -17.015625 7.3125 C -16.066406 5.425781 -14.613281 4.15625 -12.65625 3.5 Z M -12.65625 3.5 "/></g></g></g><g fill="#000000" fill-opacity="1"><g transform="translate(473.65208, 631.477295)"><g/></g></g><g fill="#000000" fill-opacity="1"><g transform="translate(453.794294, 642.289221)"><g><path d="M -86.640625 -3.09375 L -88.625 55.53125 L -57.8125 7.71875 L -52.515625 7.921875 L -25.171875 57.453125 L -23.09375 -0.828125 L -12.078125 -0.4375 L -14.953125 80.015625 L -24.359375 79.6875 L -55.90625 21.9375 L -91.015625 77.296875 L -100.453125 76.96875 L -97.6875 -3.5 Z M -86.640625 -3.09375 "/></g></g></g><g fill="#000000" fill-opacity="1"><g transform="translate(356.916337, 637.896554)"><g><path d="M -33.875 -13.75 C -28.226562 -11.582031 -23.632812 -8.378906 -20.09375 -4.140625 C -16.550781 0.0976562 -14.351562 4.898438 -13.5 10.265625 C -12.644531 15.640625 -13.289062 21.117188 -15.4375 26.703125 C -17.570312 32.285156 -20.757812 36.789062 -25 40.21875 C -29.238281 43.65625 -34.085938 45.738281 -39.546875 46.46875 C -45.003906 47.207031 -50.554688 46.492188 -56.203125 44.328125 C -61.859375 42.148438 -66.445312 38.96875 -69.96875 34.78125 C -73.488281 30.59375 -75.671875 25.804688 -76.515625 20.421875 C -77.359375 15.035156 -76.710938 9.550781 -74.578125 3.96875 C -72.429688 -1.613281 -69.242188 -6.113281 -65.015625 -9.53125 C -60.785156 -12.945312 -55.953125 -15.046875 -50.515625 -15.828125 C -45.078125 -16.617188 -39.53125 -15.925781 -33.875 -13.75 Z M -37.34375 -4.734375 C -41 -6.140625 -44.597656 -6.554688 -48.140625 -5.984375 C -51.691406 -5.421875 -54.875 -3.9375 -57.6875 -1.53125 C -60.507812 0.875 -62.675781 4.039062 -64.1875 7.96875 C -65.695312 11.90625 -66.210938 15.710938 -65.734375 19.390625 C -65.253906 23.078125 -63.878906 26.296875 -61.609375 29.046875 C -59.347656 31.804688 -56.390625 33.890625 -52.734375 35.296875 C -49.085938 36.691406 -45.5 37.125 -41.96875 36.59375 C -38.4375 36.070312 -35.242188 34.609375 -32.390625 32.203125 C -29.546875 29.804688 -27.367188 26.640625 -25.859375 22.703125 C -24.347656 18.773438 -23.847656 14.96875 -24.359375 11.28125 C -24.867188 7.59375 -26.25 4.347656 -28.5 1.546875 C -30.75 -1.242188 -33.695312 -3.335938 -37.34375 -4.734375 Z M -37.34375 -4.734375 "/></g></g></g><g fill="#000000" fill-opacity="1"><g transform="translate(297.857251, 617.143753)"><g><path d="M -71.078125 23.71875 C -75.816406 20.1875 -79.28125 15.972656 -81.46875 11.078125 C -83.65625 6.191406 -84.40625 1.085938 -83.71875 -4.234375 C -83.039062 -9.554688 -80.863281 -14.675781 -77.1875 -19.59375 C -73.53125 -24.507812 -69.234375 -28.066406 -64.296875 -30.265625 C -59.359375 -32.472656 -54.238281 -33.21875 -48.9375 -32.5 C -43.632812 -31.789062 -38.613281 -29.671875 -33.875 -26.140625 C -30.25 -23.429688 -27.457031 -20.242188 -25.5 -16.578125 C -23.539062 -12.921875 -22.585938 -9.015625 -22.640625 -4.859375 L -16.859375 -12.59375 L -8.390625 -6.265625 L -59.421875 62.109375 L -68.265625 55.515625 L -48.1875 28.609375 C -52.082031 29.722656 -55.992188 29.84375 -59.921875 28.96875 C -63.859375 28.09375 -67.578125 26.34375 -71.078125 23.71875 Z M -38.90625 -17.84375 C -42.03125 -20.1875 -45.378906 -21.566406 -48.953125 -21.984375 C -52.523438 -22.398438 -56.003906 -21.835938 -59.390625 -20.296875 C -62.785156 -18.753906 -65.738281 -16.296875 -68.25 -12.921875 C -70.78125 -9.546875 -72.300781 -6.015625 -72.8125 -2.328125 C -73.320312 1.359375 -72.851562 4.835938 -71.40625 8.109375 C -69.96875 11.378906 -67.6875 14.1875 -64.5625 16.53125 C -61.488281 18.820312 -58.164062 20.195312 -54.59375 20.65625 C -51.03125 21.125 -47.566406 20.578125 -44.203125 19.015625 C -40.835938 17.460938 -37.890625 15 -35.359375 11.625 C -32.847656 8.25 -31.320312 4.722656 -30.78125 1.046875 C -30.25 -2.617188 -30.703125 -6.109375 -32.140625 -9.421875 C -33.578125 -12.742188 -35.832031 -15.550781 -38.90625 -17.84375 Z M -38.90625 -17.84375 "/></g></g></g><g fill="#000000" fill-opacity="1"><g transform="translate(242.402363, 573.861683)"><g><path d="M -52.421875 32.8125 L -59.765625 24.59375 L -14.328125 -16.03125 L -6.984375 -7.8125 Z M -64.84375 36.515625 C -63.40625 38.117188 -62.726562 39.90625 -62.8125 41.875 C -62.894531 43.851562 -63.679688 45.507812 -65.171875 46.84375 C -66.660156 48.175781 -68.40625 48.785156 -70.40625 48.671875 C -72.40625 48.566406 -74.125 47.710938 -75.5625 46.109375 C -76.988281 44.515625 -77.671875 42.738281 -77.609375 40.78125 C -77.554688 38.832031 -76.785156 37.191406 -75.296875 35.859375 C -73.753906 34.484375 -71.984375 33.847656 -69.984375 33.953125 C -67.984375 34.066406 -66.269531 34.921875 -64.84375 36.515625 Z M -64.84375 36.515625 "/></g></g></g><g fill="#000000" fill-opacity="1"><g transform="translate(223.923553, 553.59737)"><g><path d="M -75.8125 40.546875 L -82.15625 31.53125 L -12.375 -17.578125 L -6.03125 -8.5625 Z M -75.8125 40.546875 "/></g></g></g><g fill="#000000" fill-opacity="1"><g transform="translate(207.579379, 534.629249)"><g><path d="M -54.59375 -47.140625 C -53.832031 -47.492188 -52.796875 -47.882812 -51.484375 -48.3125 L -30.96875 -3.328125 C -26.375 -6.179688 -23.425781 -10.113281 -22.125 -15.125 C -20.820312 -20.144531 -21.410156 -25.375 -23.890625 -30.8125 C -26.910156 -37.4375 -31.578125 -41.757812 -37.890625 -43.78125 L -33.9375 -52.28125 C -29.863281 -51.101562 -26.207031 -48.992188 -22.96875 -45.953125 C -19.726562 -42.921875 -17.0625 -39.101562 -14.96875 -34.5 C -12.300781 -28.632812 -11.132812 -22.890625 -11.46875 -17.265625 C -11.8125 -11.640625 -13.578125 -6.597656 -16.765625 -2.140625 C -19.960938 2.304688 -24.28125 5.769531 -29.71875 8.25 C -35.09375 10.695312 -40.492188 11.703125 -45.921875 11.265625 C -51.347656 10.835938 -56.222656 9.054688 -60.546875 5.921875 C -64.878906 2.796875 -68.253906 -1.414062 -70.671875 -6.71875 C -73.085938 -12.007812 -74.035156 -17.28125 -73.515625 -22.53125 C -73.003906 -27.78125 -71.117188 -32.554688 -67.859375 -36.859375 C -64.597656 -41.171875 -60.175781 -44.597656 -54.59375 -47.140625 Z M -62.1875 -10.578125 C -60 -5.765625 -56.703125 -2.40625 -52.296875 -0.5 C -47.890625 1.40625 -43.1875 1.5625 -38.1875 -0.03125 L -54.40625 -35.609375 C -58.820312 -32.921875 -61.769531 -29.28125 -63.25 -24.6875 C -64.738281 -20.09375 -64.382812 -15.390625 -62.1875 -10.578125 Z M -62.1875 -10.578125 "/></g></g></g><g fill="#000000" fill-opacity="1"><g transform="translate(182.494613, 476.866162)"><g/></g></g><g fill="#000000" fill-opacity="1"><g transform="translate(175.933355, 450.908006)"><g><path d="M -1.15625 -13.078125 C -0.851562 -10.953125 -1.335938 -9.023438 -2.609375 -7.296875 C -3.878906 -5.578125 -5.648438 -4.554688 -7.921875 -4.234375 C -10.117188 -3.921875 -12.0625 -4.414062 -13.75 -5.71875 C -15.445312 -7.03125 -16.445312 -8.75 -16.75 -10.875 C -17.050781 -13 -16.582031 -14.882812 -15.34375 -16.53125 C -14.101562 -18.175781 -12.347656 -19.160156 -10.078125 -19.484375 C -7.804688 -19.804688 -5.820312 -19.332031 -4.125 -18.0625 C -2.4375 -16.789062 -1.445312 -15.128906 -1.15625 -13.078125 Z M -1.15625 -13.078125 "/></g></g></g><g fill="#000000" fill-opacity="1"><g transform="translate(172.513637, 429.21251)"><g/></g></g></svg>